<svg fill="#EC5D57" xmlns="http://www.w3.org/2000/svg" xmlns:xlink="http://www.w3.org/1999/xlink" version="1.0" x="0px" y="0px" viewBox="0 0 32 32" enable-background="new 0 0 32 32" xml:space="preserve"><path d="M32,2v28c0,1.105-0.895,2-2,2s-2-0.895-2-2v-2h-8.367C19.855,27.371,20,26.707,20,26c0-0.703-0.145-1.371-0.367-2H28v-6  H15.633C15.855,17.371,16,16.707,16,16c0-0.703-0.145-1.371-0.367-2H28V8h-2.555C24.75,9.191,23.477,10,22,10c-2.211,0-4-1.789-4-4  c0-2.207,1.789-4,4-4c1.477,0,2.75,0.809,3.445,2H28V2c0-1.105,0.895-2,2-2S32,0.895,32,2z M14,22c-1.477,0-2.754,0.809-3.445,2H4  v-6h2.555c0.691,1.191,1.969,2,3.445,2c2.207,0,4-1.789,4-4c0-2.207-1.793-4-4-4c-1.477,0-2.754,0.809-3.445,2H4V8h12.367  C16.145,7.371,16,6.707,16,6c0-0.703,0.145-1.371,0.367-2H4V2c0-1.105-0.895-2-2-2S0,0.895,0,2v28c0,1.105,0.895,2,2,2s2-0.895,2-2  v-2h6.555c0.691,1.191,1.969,2,3.445,2c2.207,0,4-1.789,4-4C18,23.793,16.207,22,14,22z"></path></svg>